<svg width="393" height="58" viewBox="0 0 393 58" fill="none" xmlns="http://www.w3.org/2000/svg">
<path d="M38.1485 50.7178L0.455215 35.3264V26.0601L38.1485 10.6687V22.6049L10.1141 33.4417V27.9448L38.1485 38.7816V50.7178ZM355.069 22.6049V10.6687L392.763 26.0601V35.3264L355.069 50.7178V38.7816L383.104 27.9448V33.4417L355.069 22.6049Z" fill="#0060FF"/>
<path d="M61.6098 57V1.32393H71.7399L93.0994 33.5988H88.3092L109.59 1.32393H119.72V57H105.821V24.5681L108.02 25.1963L95.2196 44.4356H86.1104L73.389 25.1963L75.5877 24.5681V57H61.6098ZM129.631 57V1.32393H143.688V57H129.631ZM170.598 37.054L149.317 1.32393H165.415L181.671 30.3006H170.363L186.618 1.32393H202.402L180.964 37.054H170.598ZM168.949 57V31.3215H183.006V57H168.949ZM196.56 57L218.155 1.32393H231.74L253.1 57H238.415L222.317 10.1975H227.421L210.931 57H196.56ZM209.674 47.2626V36.1117H240.379V47.2626H209.674ZM282.41 57.8638C278.169 57.8638 274.243 57.1571 270.631 55.7436C267.071 54.2777 263.93 52.236 261.207 49.6184C258.537 47.0008 256.443 43.9644 254.925 40.5092C253.459 37.0016 252.726 33.2061 252.726 29.1227C252.726 24.9869 253.485 21.1914 255.004 17.7362C256.574 14.2286 258.747 11.1922 261.521 8.62699C264.296 6.00941 267.516 3.99387 271.18 2.58037C274.897 1.11452 278.85 0.381597 283.038 0.381597C288.011 0.381597 292.514 1.27158 296.545 3.05153C300.576 4.77914 303.848 7.18732 306.361 10.2761L296.937 19.6994C295.053 17.4483 292.985 15.773 290.734 14.6736C288.483 13.5219 285.865 12.946 282.881 12.946C279.845 12.946 277.122 13.6266 274.714 14.9877C272.358 16.2965 270.474 18.155 269.06 20.5632C267.647 22.9714 266.94 25.7984 266.94 29.0442C266.94 32.29 267.594 35.1432 268.903 37.6037C270.264 40.0642 272.097 41.9751 274.4 43.3362C276.756 44.6973 279.452 45.3779 282.488 45.3779C285.525 45.3779 288.09 44.802 290.184 43.6503C292.33 42.4986 293.953 40.8233 295.053 38.6245C296.204 36.4258 296.78 33.8082 296.78 30.7718L306.282 36.8969L280.918 36.2687V24.8037H310.915V26.9239C310.915 33.5726 309.711 39.2004 307.303 43.8074C304.895 48.4143 301.544 51.9219 297.252 54.3301C293.011 56.6859 288.064 57.8638 282.41 57.8638ZM317.591 57V1.32393H331.648V57H317.591Z" fill="black"/>
</svg>
