<svg width="18" height="18" viewBox="0 0 18 18" fill="none" xmlns="http://www.w3.org/2000/svg">
<g clip-path="url(#clip0_278_9897)">
<path d="M4.45994 15.1876C4.57029 15.1985 4.68146 15.1985 4.79181 15.1876L6.77744 14.7882C7.1042 14.7246 7.40415 14.5638 7.63806 14.327L14.3881 7.57696C14.899 7.06556 15.1934 6.37706 15.2101 5.65435C15.2269 4.93165 14.9647 4.23025 14.4781 3.69571C14.2291 3.42441 13.9279 3.20631 13.5924 3.05453C13.257 2.90276 12.8943 2.82046 12.5262 2.81259C12.1213 2.80469 11.7189 2.87831 11.343 3.02905C10.9671 3.1798 10.6253 3.4046 10.3381 3.69009L3.66119 10.3388C3.42599 10.574 3.26552 10.8734 3.19994 11.1995L2.81181 13.1907C2.76654 13.4334 2.77508 13.6831 2.83684 13.9222C2.8986 14.1613 3.01207 14.3839 3.16924 14.5743C3.32641 14.7647 3.52345 14.9183 3.74646 15.0243C3.96948 15.1303 4.21303 15.186 4.45994 15.1876ZM3.89744 13.3876L4.29681 11.3963C4.31611 11.2872 4.36924 11.1868 4.44869 11.1095L11.1312 4.46071C11.3037 4.28458 11.5092 4.14423 11.7361 4.0477C11.9629 3.95117 12.2065 3.90037 12.4531 3.89821H12.4981C12.7172 3.90063 12.9334 3.94778 13.1337 4.03677C13.3339 4.12576 13.5138 4.25471 13.6624 4.41571C13.9424 4.72376 14.0987 5.12443 14.1012 5.54071C14.1032 5.76508 14.0605 5.9876 13.9755 6.19526C13.8905 6.40291 13.765 6.59153 13.6062 6.75009L6.85619 13.5001C6.77756 13.5778 6.67778 13.6306 6.56931 13.652L4.56681 14.0626C4.47598 14.08 4.38227 14.0747 4.29397 14.0472C4.20566 14.0197 4.1255 13.9709 4.06056 13.9051C4.00238 13.8382 3.96084 13.7584 3.93933 13.6724C3.91783 13.5864 3.91696 13.4965 3.93681 13.4101L3.89744 13.3876Z" fill="black"/>
</g>
<defs>
<clipPath id="clip0_278_9897">
<rect width="18" height="18" fill="white"/>
</clipPath>
</defs>
</svg>
