<svg width="149" height="25" viewBox="0 0 149 25" fill="none" xmlns="http://www.w3.org/2000/svg">
<path d="M15.768 21.44L0.408 15.168V11.392L15.768 5.12V9.984L4.344 14.4V12.16L15.768 16.576V21.44ZM19.4223 24V1.312H23.5503L32.2543 14.464H30.3023L38.9743 1.312H43.1023V24H37.4383V10.784L38.3343 11.04L33.1183 18.88H29.4063L24.2223 11.04L25.1183 10.784V24H19.4223ZM47.141 24V1.312H52.869V24H47.141ZM63.835 15.872L55.163 1.312H61.723L68.347 13.12H63.739L70.363 1.312H76.795L68.059 15.872H63.835ZM63.163 24V13.536H68.891V24H63.163ZM74.4145 24L83.2145 1.312H88.7505L97.4545 24H91.4705L84.9105 4.928H86.9905L80.2705 24H74.4145ZM79.7585 20.032V15.488H92.2705V20.032H79.7585ZM109.398 24.352C107.67 24.352 106.07 24.064 104.598 23.488C103.148 22.8907 101.868 22.0587 100.758 20.992C99.6703 19.9253 98.8169 18.688 98.1983 17.28C97.6009 15.8507 97.3023 14.304 97.3023 12.64C97.3023 10.9547 97.6116 9.408 98.2303 8C98.8703 6.57067 99.7556 5.33333 100.886 4.288C102.017 3.22133 103.329 2.4 104.822 1.824C106.337 1.22667 107.948 0.927999 109.654 0.927999C111.681 0.927999 113.516 1.29067 115.158 2.016C116.801 2.72 118.134 3.70133 119.158 4.96L115.318 8.8C114.55 7.88267 113.708 7.2 112.79 6.752C111.873 6.28267 110.806 6.048 109.59 6.048C108.353 6.048 107.244 6.32533 106.262 6.88C105.302 7.41333 104.534 8.17067 103.958 9.152C103.382 10.1333 103.094 11.2853 103.094 12.608C103.094 13.9307 103.361 15.0933 103.894 16.096C104.449 17.0987 105.196 17.8773 106.134 18.432C107.094 18.9867 108.193 19.264 109.43 19.264C110.668 19.264 111.713 19.0293 112.566 18.56C113.441 18.0907 114.102 17.408 114.55 16.512C115.02 15.616 115.254 14.5493 115.254 13.312L119.126 15.808L108.79 15.552V10.88H121.014V11.744C121.014 14.4533 120.524 16.7467 119.542 18.624C118.561 20.5013 117.196 21.9307 115.446 22.912C113.718 23.872 111.702 24.352 109.398 24.352ZM123.735 24V1.312H129.463V24H123.735ZM133.101 9.984V5.12L148.461 11.392V15.168L133.101 21.44V16.576L144.525 12.16V14.4L133.101 9.984Z" fill="white"/>
</svg>
