<svg xmlns="http://www.w3.org/2000/svg" width="174.677" height="90.494" viewBox="0 0 174.677 90.494">
  <g id="main-logo_" data-name="main-logo " transform="translate(0 0.002)">
    <path id="Path_1607" data-name="Path 1607" d="M538.227,535c-.516-.479-1.143-.713-6.043-.7h-12.6a4.375,4.375,0,0,0,1.123-2.173,9.358,9.358,0,0,1-.989.984c-.049.043-.1.085-.149.126s-.1.081-.148.121l-.068.053c-.16.125-.323.245-.489.357l-.134.089c-.093.059-.184.118-.276.173l-.149.089c-.111.064-.22.125-.33.183h-.006a8.992,8.992,0,0,1-.957.426,10.136,10.136,0,0,1-2.144.545c-.109.017-.22.031-.332.044l.339.381,3.141,3.535h18.325a2.691,2.691,0,0,0,1.9-.72,2.078,2.078,0,0,0,.775-1.755A2.28,2.28,0,0,0,538.227,535Z" transform="translate(-448.287 -463.614)" fill="#cd3bff"/>
    <path id="Path_1608" data-name="Path 1608" d="M357.114,478.316a2.352,2.352,0,0,0,0-3.491,2.692,2.692,0,0,0-1.9-.72L308.63,474.1v4.912l46.581.023A2.692,2.692,0,0,0,357.114,478.316Z" transform="translate(-268.89 -413.056)" fill="#cd3bff"/>
    <path id="Path_1609" data-name="Path 1609" d="M162.456,53.026V67.877L144.178,53.026H133.684v21.14l-13.425-21.14h-3.576V42.961L99.6,70.154a9.457,9.457,0,0,0-.753-1.358,10,10,0,0,0-1.3-1.584q.18-.3.336-.608l.006-.013a9.068,9.068,0,0,0-2.154-10.858,10.16,10.16,0,0,0-5.091-2.524l-5.669-9.382,2.148.189s5.574-8.506,8.981-11.377A56.761,56.761,0,0,0,76.717,3.716l-1.186.776.014-1.3s-16.872-6.215-31.683-1.3L46,2.244s-3.6,2.337-4.041,14.178l-.514-.3S32.377,27.947,30.675,39.63l1.194-1.4a26.128,26.128,0,0,0,6.392,8.214l-3.077,3.6-5-5V72.7H12.946a.745.745,0,0,1-.746-.746l0-2.748V53.026H0V73.589a9.528,9.528,0,0,0,3.225,7.18l.008.008a10.883,10.883,0,0,0,7.54,2.847H42.388V74.444H57.724l2.153,2.584v6.6h44.867l3.527-5.541h14.206l3.491,5.541h19.918V68.8l26.629,21.692V83.624h2.163v-30.6H162.457Zm-75.2,0H85.232l-2.094-6.905ZM78.113,41.172a4.07,4.07,0,0,0,3.708-1.3l0,0A17.348,17.348,0,0,1,66.818,51.481v-1.7A17.6,17.6,0,0,1,52.689,36.265l.794-1.5,0-.012.7-1.34-.152,2.476q-.07-.122-.135-.243v.015s.044.085.135.232c.009.014.019.03.028.045A8.788,8.788,0,1,0,66.841,24.421a9.856,9.856,0,0,0-2.967-1.46s2.324-2.994,10.016-6.053l-.5,1.06a6.134,6.134,0,0,1,3.766.643c2.112,1.038,4.638,3.523,6.244,9.318a3.5,3.5,0,0,0-1.357-1.043l-.068-.057s-.036-.005-.1-.009a2.823,2.823,0,0,0-.292-.086c-2.53-.606-5.355,2.134-6.312,6.121s.319,7.711,2.849,8.318Zm-43.477-6.1.84.386s2.725-11.91,9.456-17.813l.832.713v0c-.051-.251-2.261-11.066,2.408-15.323v1.53A41.046,41.046,0,0,1,75.836,7.273l-.04.952.749-.837s12.049,6.994,16.3,23.688l-5.917,7.737,3.717-7.585A39.482,39.482,0,0,0,74.218,10h0l-.006,0-.01,0-.039.009a.125.125,0,0,1-.026.006l-.027.008-.03.008c-.017.005-.036.01-.055.014L74,10.062l-.178.049-.039.01-.045.013-.035.01-.1.028-.045.013-.2.058-.1.031-.115.033-.061.019c-.156.048-.326.1-.511.161l-.066.021h0l-.068.022-.073.024-.075.024-.075.024-.076.026L72,10.675l-.216.075-.136.046-.239.084c-.182.063-.371.131-.567.2l-.192.071q-.211.077-.433.162l-.167.064-.089.033-.015.006-.042.017-.274.107-.215.085-.109.045q-.22.087-.448.182l-.182.075c-.015.006-.032.014-.048.019l-.192.081c-.169.071-.341.146-.516.22l-.194.086-.243.107-.174.077-.224.1-.153.07-.126.058-.129.059-.127.059-.088.041-.089.041c-.059.028-.117.057-.178.084l-.167.08a.107.107,0,0,0-.017.009l-.188.089-.13.064-.247.12-.139.068-.162.081c-.039.019-.079.039-.117.059l-.072.036-.178.09-.234.12-.018.009-.17.088-.2.106-.027.014-.176.093-.386.207q-.323.172-.648.354l-.357.2-.29.165-.2.113-.214.125q-.61.357-1.232.742l-.13.081-.184.116-.07.044c-.066.041-.131.082-.2.125l-.188.121c-.054.033-.107.068-.161.1l-.178.116-.04.026-.1.068-.236.156c-.088.058-.174.117-.26.175l-.2.133-.3.209c-.05.035-.1.07-.152.106l-.305.214-.228.164-.229.165-.229.166-.076.057-.153.113-.064.048c-.063.046-.126.094-.188.142-.088.064-.174.13-.261.2l-.25.191-.152.118-.153.118-.234.185-.223.178-.146.117c-.054.042-.107.086-.16.13-.1.082-.2.166-.3.25s-.2.169-.3.254l-.3.259-.151.13c-.1.086-.2.175-.3.264l-.151.133-.151.134-.151.135c-.1.09-.2.182-.3.273l-.149.138-.276.258-.023.022-.149.14-.3.285-.236.23-.113.111c-.033.032-.066.066-.1.1l-.143.143-.147.148-.1.1-.07.071-.12.122c-.1.1-.194.2-.291.3-.039.04-.076.08-.113.121l-.046.048-.16.17-.192.209c-.07.076-.139.151-.209.228-.1.1-.189.21-.285.315l-.212.241-.144.166-.09.1-.106.122-.081.1L49,26.015c-.062.075-.124.149-.187.224q-.114.137-.228.278l-.2.254-.2.256-.27.346-.267.35c-.089.117-.178.236-.265.354h0c-.088.12-.175.239-.261.359s-.174.242-.26.363-.171.245-.256.368q-.191.276-.379.559c-.063.094-.126.189-.188.283l-.185.287c-.082.127-.164.255-.245.384-.07.112-.139.223-.207.336a.021.021,0,0,0-.005.009c-.05.08-.1.161-.148.242-.08.131-.158.263-.236.4s-.157.267-.233.4l.058-.049a.134.134,0,0,1,.014-.01l.019-.017.017-.014.017-.013.014-.012.023-.018.042-.033.05-.04.046-.036q.025-.017.05-.039l.028-.021.013-.01h0l.012-.009.058-.044.062-.045h0l.064-.048.112-.081c.031-.023.064-.046.1-.07.075-.054.156-.111.242-.17l.031-.021.031-.022.057-.039c.023-.017.046-.032.071-.048s.048-.033.072-.049l0,0,.1-.068.109-.072.067-.044c.125-.081.258-.166.4-.254l.057-.035c.018-.012.037-.023.055-.036l.079-.048.133-.081.067-.041.138-.082.071-.042.093-.054.094-.057.031-.017.149-.088.233-.133.187-.1.081-.045c.086-.049.175-.1.265-.146.041-.023.082-.045.125-.067.234-.126.478-.254.734-.384l.121-.061.061-.031.1-.049.035-.017.031-.015.1-.052.026-.013c.031-.014.061-.03.091-.045s.063-.03.094-.045l.1-.048.085-.041.136-.066.317-.148c.189-.086.382-.174.579-.26l.162-.071.156-.068c.039-.017.076-.033.115-.049.086-.037.174-.075.261-.111l.133-.057.166-.068c.169-.07.341-.139.515-.207a108.529,108.529,0,0,0-8.359,10.794L46,38.045s3.192,6.538,13.105,14.981H51.3c-3.856-2.842-13.5-10.477-16.667-17.951Zm3.975,16.9,2.9-3.258A35.08,35.08,0,0,0,49.5,53.026H38.542a10.516,10.516,0,0,1-1.094-1.881l1.163.832ZM95.481,78.925a7.84,7.84,0,0,1-5.5,2.051H66.456L57.532,70.262V71.8H39.74v9.179H10.773a8.281,8.281,0,0,1-5.762-2.161,6.831,6.831,0,0,1-2.364-5.226V55.673H9.555V72.388a2.8,2.8,0,0,0,.941,2.105,3.438,3.438,0,0,0,2.309.85H30.693l2.14,2.14V51.438l4.235,4.235H88.555a8.86,8.86,0,0,1,1.646.148,7.574,7.574,0,0,1,3.766,1.885,6.426,6.426,0,0,1,1.55,7.7,7.062,7.062,0,0,1-1.828,2.273,7.515,7.515,0,0,1,2.955,2.586A6.419,6.419,0,0,1,97.753,73.9a6.585,6.585,0,0,1-2.271,5.023Zm31.947,2.051L115.387,61.953l-5.171,8.126h8.14l3.3,5.356H104.779l1.245,1.244-2.735,4.3H95.865l18.171-28.824v3.522H118.8l16.068,25.3h-7.442Zm44.6,0h-2.163V84.92L143.238,63.228V80.976h-6.907v-25.3h6.907L165.1,73.441V55.673h6.926v25.3Z" transform="translate(0 0)" fill="#cd3bff"/>
  </g>
</svg>
