<svg width="20" height="24" viewBox="0 0 20 24" fill="none" xmlns="http://www.w3.org/2000/svg">
<path d="M12.6666 22C12 22.6667 11.1045 22.6667 9.99997 22.6667C8.89544 22.6667 7.99997 22.6667 7.33331 22M4.66664 6.66671C4.66664 3.72119 7.05445 1.33337 9.99997 1.33337C12.9454 1.33337 15.3333 3.72119 15.3333 6.66671V9.67764C15.3333 12.0183 16.2632 14.2632 17.9184 15.9184C19.0369 17.037 18.3796 18.9526 16.81 19.1488L15.5672 19.3042C11.8701 19.7663 8.12984 19.7663 4.43281 19.3042L3.19001 19.1488C1.62037 18.9526 0.963094 17.037 2.08164 15.9184C3.73679 14.2632 4.66664 12.0183 4.66664 9.67764V6.66671Z" stroke="#002244" stroke-width="1.33333" stroke-linecap="round" stroke-linejoin="round"/>
</svg>
