<svg width="35" height="62" viewBox="0 0 35 62" fill="none" xmlns="http://www.w3.org/2000/svg">
<path d="M5.98906 53.7C4.49573 53.7 3.25906 53.21 2.27906 52.23C1.34573 51.2033 0.879063 49.9667 0.879063 48.52C0.879063 47.0267 1.34573 45.79 2.27906 44.81C3.25906 43.83 4.49573 43.34 5.98906 43.34C7.4824 43.34 8.69573 43.83 9.62906 44.81C10.6091 45.79 11.0991 47.0267 11.0991 48.52C11.0991 49.9667 10.6091 51.2033 9.62906 52.23C8.69573 53.21 7.4824 53.7 5.98906 53.7ZM5.98906 32.07C4.49573 32.07 3.25906 31.58 2.27906 30.6C1.34573 29.5733 0.879063 28.3367 0.879063 26.89C0.879063 25.3967 1.34573 24.16 2.27906 23.18C3.25906 22.2 4.49573 21.71 5.98906 21.71C7.4824 21.71 8.69573 22.2 9.62906 23.18C10.6091 24.16 11.0991 25.3967 11.0991 26.89C11.0991 28.3367 10.6091 29.5733 9.62906 30.6C8.69573 31.58 7.4824 32.07 5.98906 32.07ZM30.383 61.33C27.9096 59.1367 25.763 56.4533 23.943 53.28C22.1696 50.1067 20.793 46.63 19.813 42.85C18.833 39.07 18.343 35.15 18.343 31.09C18.343 27.03 18.833 23.11 19.813 19.33C20.793 15.55 22.1696 12.0733 23.943 8.9C25.763 5.72666 27.9096 3.04333 30.383 0.849995L34.793 4.77C31.713 7.61667 29.3096 11.3033 27.583 15.83C25.903 20.31 25.063 25.3967 25.063 31.09C25.063 36.7367 25.903 41.8233 27.583 46.35C29.3096 50.8767 31.713 54.5633 34.793 57.41L30.383 61.33Z" fill="white"/>
</svg>
