<svg width="22" height="22" viewBox="0 0 22 22" fill="none" xmlns="http://www.w3.org/2000/svg">
<path d="M15.5828 14.9346L19.1158 18.4675C19.2947 18.6466 19.2947 18.9368 19.1158 19.1158C18.9368 19.2947 18.6466 19.2947 18.4675 19.1158L14.9346 15.5828C13.6418 16.7241 11.9434 17.4167 10.0833 17.4167C6.03324 17.4167 2.75 14.1334 2.75 10.0833C2.75 6.03324 6.03324 2.75 10.0833 2.75C14.1334 2.75 17.4167 6.03324 17.4167 10.0833C17.4167 11.9434 16.7241 13.6418 15.5828 14.9346ZM10.0833 16.5C13.6272 16.5 16.5 13.6272 16.5 10.0833C16.5 6.53951 13.6272 3.66667 10.0833 3.66667C6.53951 3.66667 3.66667 6.53951 3.66667 10.0833C3.66667 13.6272 6.53951 16.5 10.0833 16.5Z" fill="#6C6C6C"/>
</svg>
