<svg width="18" height="18" viewBox="0 0 18 18" fill="none" xmlns="http://www.w3.org/2000/svg">
<g clip-path="url(#clip0_278_9888)">
<path d="M15.2922 7.67655H15.2804C14.118 7.67655 13.5354 6.27165 14.3566 5.44905L14.373 5.43267C14.8818 4.92302 14.8817 4.09754 14.3728 3.588L14.362 3.57716C13.8525 3.06708 13.0259 3.06665 12.5159 3.57619L12.5057 3.58634C11.6833 4.40804 10.2779 3.82553 10.2779 2.66291V2.66222C10.2779 1.94132 9.69353 1.35693 8.97263 1.35693H8.97065C8.24975 1.35693 7.66536 1.94132 7.66536 2.66222V2.66381C7.66536 3.82628 6.26024 4.40883 5.43772 3.58742L5.42368 3.57342C4.91352 3.06398 4.08696 3.06459 3.57756 3.57482L3.56406 3.58832C3.05545 4.09776 3.05531 4.92281 3.56374 5.43246L3.58062 5.44938C4.40142 6.27212 3.81872 7.67659 2.65657 7.67659H2.65099C1.93009 7.67659 1.3457 8.26098 1.3457 8.98188V8.98386C1.3457 9.70476 1.93009 10.2891 2.65099 10.2891C3.81394 10.2891 4.39631 11.6952 3.57389 12.5175L3.56575 12.5256C3.05549 13.0358 3.05596 13.8632 3.56683 14.3728L3.57749 14.3835C4.08718 14.8919 4.91233 14.8917 5.42173 14.3829L5.43761 14.367C6.26014 13.5456 7.66529 14.1282 7.66529 15.2906V15.3034C7.66529 16.0243 8.24968 16.6087 8.97058 16.6087H8.97256C9.69346 16.6087 10.2778 16.0243 10.2778 15.3034V15.2932C10.2778 14.1303 11.6838 13.5479 12.5061 14.3701L12.5165 14.3806C13.0262 14.8902 13.8525 14.8903 14.3623 14.3807L14.3703 14.3727C14.8802 13.863 14.8802 13.0364 14.3704 12.5265L14.3613 12.5174C13.5389 11.6951 14.1213 10.2891 15.2842 10.2891H15.2921C16.013 10.2891 16.5974 9.70469 16.5974 8.98379V8.98181C16.5975 8.26094 16.0131 7.67655 15.2922 7.67655Z" stroke="#002244" stroke-width="0.72" stroke-miterlimit="10" stroke-linecap="round" stroke-linejoin="round"/>
<path d="M8.97266 11.5239C10.376 11.5239 11.5137 10.3863 11.5137 8.98292C11.5137 7.57955 10.376 6.44189 8.97266 6.44189C7.5693 6.44189 6.43164 7.57955 6.43164 8.98292C6.43164 10.3863 7.5693 11.5239 8.97266 11.5239Z" stroke="#002244" stroke-width="0.72" stroke-miterlimit="10" stroke-linecap="round" stroke-linejoin="round"/>
</g>
<defs>
<clipPath id="clip0_278_9888">
<rect width="18" height="18" fill="white"/>
</clipPath>
</defs>
</svg>
