<svg width="1542" height="100" viewBox="0 0 1542 100" fill="none" xmlns="http://www.w3.org/2000/svg">
<path d="M59.34 21.48V41.192L0.204 58.856V40.04L59.34 21.48ZM0.204 50.664L59.34 68.328V88.552L0.204 69.992V50.664ZM16.844 50.024V60.52H13.004V50.024H16.844ZM92.576 97L70.304 3.56H94.88L111.648 81L107.68 78.056H118.048L113.568 81L126.24 6.88799H145.568L128.032 97H92.576ZM148.128 97L129.312 6.88799H149.664L164.512 81L160.032 78.056H169.76L166.432 81L180.896 3.56H203.936L184.352 97H148.128ZM215.722 97V3.56H238.762V97H215.722ZM236.202 97V77.544H275.626V97H236.202ZM236.202 59.24V39.784H272.938V59.24H236.202ZM236.202 23.016V3.56H274.858V23.016H236.202ZM291.472 97V3.56H315.28V97H291.472ZM312.72 97V76.264H350.608V97H312.72ZM404.995 99.56C396.547 99.56 389.294 98.1093 383.235 95.208C377.176 92.2213 372.184 88.3387 368.259 83.56C364.334 78.696 361.432 73.448 359.555 67.816C357.678 62.184 356.739 56.7227 356.739 51.432V48.616C356.739 42.728 357.678 36.968 359.555 31.336C361.518 25.6187 364.462 20.456 368.387 15.848C372.398 11.24 377.39 7.57066 383.363 4.84C389.336 2.10933 396.334 0.743996 404.355 0.743996C412.888 0.743996 420.44 2.36533 427.011 5.60799C433.667 8.76533 439 13.2453 443.011 19.048C447.022 24.7653 449.368 31.4213 450.051 39.016H426.243C425.646 35.7733 424.366 32.9573 422.403 30.568C420.44 28.1787 417.923 26.344 414.851 25.064C411.779 23.6987 408.28 23.016 404.355 23.016C400.686 23.016 397.358 23.656 394.371 24.936C391.47 26.216 388.995 28.0507 386.947 30.44C384.984 32.744 383.448 35.56 382.339 38.888C381.315 42.216 380.803 45.9707 380.803 50.152C380.803 54.3333 381.315 58.088 382.339 61.416C383.448 64.744 385.027 67.6027 387.075 69.992C389.208 72.3813 391.768 74.216 394.755 75.496C397.742 76.6907 401.155 77.288 404.995 77.288C410.968 77.288 416.003 75.8373 420.099 72.936C424.28 70.0347 426.798 66.152 427.651 61.288H451.459C450.691 68.2853 448.344 74.6853 444.419 80.488C440.494 86.2907 435.203 90.9413 428.547 94.44C421.891 97.8533 414.04 99.56 404.995 99.56ZM509.796 99.56C501.263 99.56 493.839 98.1093 487.524 95.208C481.209 92.2213 475.961 88.3387 471.78 83.56C467.599 78.696 464.484 73.448 462.436 67.816C460.388 62.184 459.364 56.7227 459.364 51.432V48.616C459.364 42.728 460.431 36.968 462.564 31.336C464.697 25.6187 467.897 20.456 472.164 15.848C476.431 11.24 481.679 7.57066 487.908 4.84C494.223 2.10933 501.519 0.743996 509.796 0.743996C517.988 0.743996 525.199 2.10933 531.428 4.84C537.743 7.57066 543.033 11.24 547.3 15.848C551.567 20.456 554.767 25.6187 556.9 31.336C559.119 36.968 560.228 42.728 560.228 48.616V51.432C560.228 56.7227 559.161 62.184 557.028 67.816C554.98 73.448 551.865 78.696 547.684 83.56C543.503 88.3387 538.255 92.2213 531.94 95.208C525.625 98.1093 518.244 99.56 509.796 99.56ZM509.796 77.288C513.892 77.288 517.561 76.6053 520.804 75.24C524.047 73.8747 526.82 71.9547 529.124 69.48C531.428 67.0053 533.177 64.1467 534.372 60.904C535.567 57.576 536.164 53.992 536.164 50.152C536.164 46.056 535.524 42.344 534.244 39.016C533.049 35.688 531.3 32.8293 528.996 30.44C526.692 28.0507 523.919 26.216 520.676 24.936C517.433 23.656 513.807 23.016 509.796 23.016C505.7 23.016 502.031 23.656 498.788 24.936C495.545 26.216 492.772 28.0507 490.468 30.44C488.164 32.8293 486.415 35.688 485.22 39.016C484.025 42.344 483.428 46.056 483.428 50.152C483.428 53.992 484.025 57.576 485.22 60.904C486.415 64.1467 488.164 67.0053 490.468 69.48C492.772 71.9547 495.545 73.8747 498.788 75.24C502.031 76.6053 505.7 77.288 509.796 77.288ZM574.597 97V3.56H607.621L626.821 52.84H629.381L648.453 3.56H682.117V97H658.565V17.256L662.277 17.512L638.213 78.184H616.581L592.389 17.512L596.357 17.256V97H574.597ZM701.097 97V3.56H724.137V97H701.097ZM721.577 97V77.544H761.001V97H721.577ZM721.577 59.24V39.784H758.313V59.24H721.577ZM721.577 23.016V3.56H760.233V23.016H721.577ZM821.66 97V21.736H845.468V97H821.66ZM796.06 24.296V3.56H871.068V24.296H796.06ZM926.296 99.56C917.763 99.56 910.339 98.1093 904.024 95.208C897.709 92.2213 892.461 88.3387 888.28 83.56C884.099 78.696 880.984 73.448 878.936 67.816C876.888 62.184 875.864 56.7227 875.864 51.432V48.616C875.864 42.728 876.931 36.968 879.064 31.336C881.197 25.6187 884.397 20.456 888.664 15.848C892.931 11.24 898.179 7.57066 904.408 4.84C910.723 2.10933 918.019 0.743996 926.296 0.743996C934.488 0.743996 941.699 2.10933 947.928 4.84C954.243 7.57066 959.533 11.24 963.8 15.848C968.067 20.456 971.267 25.6187 973.4 31.336C975.619 36.968 976.728 42.728 976.728 48.616V51.432C976.728 56.7227 975.661 62.184 973.528 67.816C971.48 73.448 968.365 78.696 964.184 83.56C960.003 88.3387 954.755 92.2213 948.44 95.208C942.125 98.1093 934.744 99.56 926.296 99.56ZM926.296 77.288C930.392 77.288 934.061 76.6053 937.304 75.24C940.547 73.8747 943.32 71.9547 945.624 69.48C947.928 67.0053 949.677 64.1467 950.872 60.904C952.067 57.576 952.664 53.992 952.664 50.152C952.664 46.056 952.024 42.344 950.744 39.016C949.549 35.688 947.8 32.8293 945.496 30.44C943.192 28.0507 940.419 26.216 937.176 24.936C933.933 23.656 930.307 23.016 926.296 23.016C922.2 23.016 918.531 23.656 915.288 24.936C912.045 26.216 909.272 28.0507 906.968 30.44C904.664 32.8293 902.915 35.688 901.72 39.016C900.525 42.344 899.928 46.056 899.928 50.152C899.928 53.992 900.525 57.576 901.72 60.904C902.915 64.1467 904.664 67.0053 906.968 69.48C909.272 71.9547 912.045 73.8747 915.288 75.24C918.531 76.6053 922.2 77.288 926.296 77.288ZM1482.33 88.552V68.84L1541.47 51.176V69.992L1482.33 88.552ZM1541.47 59.368L1482.33 41.704V21.48L1541.47 40.04V59.368ZM1524.83 60.008V49.512H1528.67V60.008H1524.83Z" fill="black"/>
<path d="M1025.44 97V6.24799H1041.95L1076.77 58.856H1068.96L1103.65 6.24799H1120.16V97H1097.5V44.136L1101.09 45.16L1080.22 76.52H1065.38L1044.64 45.16L1048.22 44.136V97H1025.44ZM1136.31 97V6.24799H1159.23V97H1136.31ZM1203.09 64.488L1168.4 6.24799H1194.64L1221.14 53.48H1202.71L1229.2 6.24799H1254.93L1219.99 64.488H1203.09ZM1200.4 97V55.144H1223.31V97H1200.4ZM1245.41 97L1280.61 6.24799H1302.75L1337.57 97H1313.63L1287.39 20.712H1295.71L1268.83 97H1245.41ZM1266.78 81.128V62.952H1316.83V81.128H1266.78ZM1385.34 98.408C1378.43 98.408 1372.03 97.256 1366.14 94.952C1360.34 92.5627 1355.22 89.2347 1350.78 84.968C1346.43 80.7013 1343.02 75.752 1340.54 70.12C1338.15 64.4027 1336.96 58.216 1336.96 51.56C1336.96 44.8187 1338.2 38.632 1340.67 33C1343.23 27.2827 1346.77 22.3333 1351.3 18.152C1355.82 13.8853 1361.07 10.6 1367.04 8.296C1373.1 5.90666 1379.54 4.712 1386.37 4.712C1394.47 4.712 1401.81 6.16266 1408.38 9.064C1414.95 11.88 1420.29 15.8053 1424.38 20.84L1409.02 36.2C1405.95 32.5307 1402.58 29.8 1398.91 28.008C1395.24 26.1307 1390.98 25.192 1386.11 25.192C1381.16 25.192 1376.72 26.3013 1372.8 28.52C1368.96 30.6533 1365.89 33.6827 1363.58 37.608C1361.28 41.5333 1360.13 46.1413 1360.13 51.432C1360.13 56.7227 1361.19 61.3733 1363.33 65.384C1365.55 69.3947 1368.53 72.5093 1372.29 74.728C1376.13 76.9467 1380.52 78.056 1385.47 78.056C1390.42 78.056 1394.6 77.1173 1398.01 75.24C1401.51 73.3627 1404.16 70.632 1405.95 67.048C1407.83 63.464 1408.77 59.1973 1408.77 54.248L1424.26 64.232L1382.91 63.208V44.52H1431.81V47.976C1431.81 58.8133 1429.84 67.9867 1425.92 75.496C1421.99 83.0053 1416.53 88.7227 1409.54 92.648C1402.62 96.488 1394.56 98.408 1385.34 98.408ZM1442.69 97V6.24799H1465.6V97H1442.69Z" fill="#1574CD"/>
</svg>
